<svg xmlns="http://www.w3.org/2000/svg" xmlns:svg="http://www.w3.org/2000/svg" id="svg2393" width="84.997" height="15.267" version="1.1" viewBox="0 0 22.489 4.039"><metadata id="metadata2390"/><g id="layer1" transform="translate(-100.60787,-83.752866)"><path id="path751" fill="none" stroke="#000" stroke-linecap="round" stroke-width=".088" d="m 100.65241,84.047588 v 2.449976"/><path id="path757" fill="none" stroke="#000" stroke-linecap="round" stroke-width=".088" d="m 101.5524,83.847592 v -0.05"/><path id="path759" fill="none" stroke="#000" stroke-linecap="round" stroke-width=".088" d="m 102.33239,83.797591 v 0.05"/><path id="path763" fill="none" stroke="#000" stroke-linecap="round" stroke-width=".088" d="m 102.85239,83.797591 v 0.05"/><path id="path769" fill="none" stroke="#000" stroke-linecap="round" stroke-width=".088" d="m 100.65241,84.047588 0.2,-0.199996"/><path id="path771" fill="none" stroke="#000" stroke-linecap="round" stroke-width=".088" d="m 100.85241,86.697562 -0.2,-0.199998"/><path id="path773" fill="none" stroke="#000" stroke-linecap="round" stroke-width=".088" d="M 103.65238,85.197579 V 84.047588"/><path id="path795" fill="none" stroke="#000" stroke-linecap="round" stroke-width=".088" d="m 105.85236,87.747551 -0.60622,-1.049989"/><path id="path811" fill="none" stroke="#000" stroke-linecap="round" stroke-width=".088" d="m 103.45238,83.847592 0.2,0.199996"/><path id="path829" fill="none" stroke="#000" stroke-linecap="round" stroke-width=".088" d="M 117.85224,87.747551 H 105.85236"/><path id="path855" fill="none" stroke="#000" stroke-linecap="round" stroke-width=".088" d="m 122.85219,86.697562 h -4.39374"/><path id="path857" fill="none" stroke="#000" stroke-linecap="round" stroke-width=".088" d="m 105.24614,86.697562 h -4.39373"/><path id="path869" fill="none" stroke="#000" stroke-linecap="round" stroke-width=".088" d="M 120.05222,85.197579 H 103.65238"/><path id="path919" fill="none" stroke="#000" stroke-linecap="round" stroke-width=".088" d="m 100.85241,83.847592 h 2.59997"/><path id="path921" fill="none" stroke="#000" stroke-linecap="round" stroke-width=".088" d="m 120.25221,83.847592 h 2.59998"/><path id="path923" fill="none" stroke="#000" stroke-linecap="round" stroke-width=".088" d="m 101.5524,83.797591 h 20.59979"/><path id="path987" fill="none" stroke="#000" stroke-linecap="round" stroke-width=".088" d="m 120.05222,84.047588 0.19999,-0.199996"/><path id="path1005" fill="none" stroke="#000" stroke-linecap="round" stroke-width=".088" d="m 118.45845,86.697562 -0.60621,1.049989"/><path id="path1017" fill="none" stroke="#000" stroke-linecap="round" stroke-width=".088" d="m 120.05222,84.047588 v 1.149991"/><path id="path1021" fill="none" stroke="#000" stroke-linecap="round" stroke-width=".088" d="m 120.85221,83.797591 v 0.05"/><path id="path1025" fill="none" stroke="#000" stroke-linecap="round" stroke-width=".088" d="m 123.05219,86.497564 -0.2,0.199998"/><path id="path1027" fill="none" stroke="#000" stroke-linecap="round" stroke-width=".088" d="m 122.85219,83.847592 0.2,0.199996"/><path id="path1029" fill="none" stroke="#000" stroke-linecap="round" stroke-width=".088" d="m 121.3722,83.797591 v 0.05"/><path id="path1033" fill="none" stroke="#000" stroke-linecap="round" stroke-width=".088" d="m 122.15219,83.797591 v 0.05"/><path id="path1039" fill="none" stroke="#000" stroke-linecap="round" stroke-width=".088" d="M 123.05219,86.497564 V 84.047588"/></g></svg>